<?xml version="1.0" standalone="no"?>
<!DOCTYPE svg PUBLIC "-//W3C//DTD SVG 20010904//EN"
 "http://www.w3.org/TR/2001/REC-SVG-20010904/DTD/svg10.dtd">
<svg version="1.0" xmlns="http://www.w3.org/2000/svg"
 width="1089.000000pt" height="1280.000000pt" viewBox="0 0 1089.000000 1280.000000"
 preserveAspectRatio="xMidYMid meet">
<metadata>
Created by potrace 1.15, written by Peter Selinger 2001-2017
</metadata>
<g transform="translate(0.000000,1280.000000) scale(0.100000,-0.100000)"
fill="#000000" stroke="none">
<path d="M5738 12790 c-148 -18 -372 -95 -563 -194 -276 -143 -401 -267 -576
-571 -63 -110 -149 -304 -149 -338 0 -10 -6 -19 -12 -21 -7 -3 -106 -7 -220
-10 l-208 -5 19 20 c38 41 57 177 38 269 -6 30 -18 42 -80 80 -75 47 -235 200
-428 410 l-106 115 -129 -1 c-103 0 -140 -4 -184 -20 -51 -18 -61 -28 -136
-128 -44 -59 -113 -138 -154 -174 -60 -55 -100 -109 -100 -137 0 -12 67 -3 90
13 14 9 65 57 113 106 l88 89 55 -7 54 -6 0 33 c0 21 -8 41 -20 52 -11 10 -20
24 -20 32 0 20 94 61 156 69 111 13 178 -32 299 -204 39 -55 67 -85 84 -89 14
-4 52 -32 84 -62 32 -31 89 -74 125 -97 38 -23 75 -54 85 -72 27 -46 33 -137
14 -203 -25 -83 -44 -96 -173 -114 -60 -9 -130 -22 -156 -31 -54 -18 -91 -60
-86 -98 l3 -24 105 33 c91 30 119 34 212 34 59 1 158 8 220 17 62 9 149 17
193 17 80 1 164 -18 148 -33 -10 -11 -208 -55 -338 -76 -159 -25 -481 -30
-607 -9 -57 9 -115 22 -130 29 -16 6 -55 49 -92 100 -164 226 -284 295 -412
237 l-42 -19 -33 45 c-39 52 -71 71 -133 79 -36 5 -50 3 -72 -15 -34 -26 -59
-26 -137 0 -43 15 -100 23 -187 28 l-125 6 -110 74 c-134 91 -248 145 -337
160 -73 12 -97 9 -173 -24 -28 -13 -77 -28 -110 -34 -89 -18 -95 -21 -95 -42
0 -15 -6 -19 -29 -17 -35 3 -57 -15 -119 -97 -25 -33 -62 -78 -82 -100 -33
-35 -39 -49 -44 -103 -8 -69 -23 -112 -40 -112 -6 0 -25 8 -41 18 -81 50 -146
66 -265 66 -135 0 -207 -17 -326 -75 -152 -75 -261 -198 -310 -353 -75 -238
-16 -593 136 -816 63 -92 168 -196 226 -221 80 -36 241 -38 434 -5 200 33 361
41 585 27 99 -7 275 -14 391 -18 l211 -6 12 -52 c27 -121 100 -232 251 -380
149 -146 227 -267 331 -514 33 -80 90 -214 125 -297 l64 -150 -54 -115 c-29
-63 -81 -189 -115 -282 -76 -211 -74 -207 -114 -207 -18 0 -41 -6 -50 -13 -26
-18 -5 -65 45 -102 36 -27 43 -38 59 -105 27 -108 76 -203 249 -485 399 -651
558 -921 548 -931 -3 -2 -27 0 -54 5 -93 18 -178 -17 -230 -93 -24 -35 -59
-134 -68 -196 l-6 -35 -85 -16 c-46 -9 -114 -31 -150 -48 -104 -48 -217 -167
-284 -298 -25 -51 -26 -71 -4 -103 14 -20 18 -50 19 -165 2 -163 6 -184 128
-671 195 -779 381 -1630 450 -2064 55 -339 127 -930 157 -1285 7 -77 15 -143
18 -147 3 -3 82 -22 175 -42 93 -19 173 -39 178 -44 5 -5 -18 -37 -55 -76
l-64 -66 -65 0 c-35 0 -120 -7 -188 -17 -85 -11 -188 -16 -320 -15 -218 2
-293 -8 -363 -46 -85 -46 -147 -140 -187 -283 -11 -39 -21 -73 -22 -74 -2 -1
-34 -12 -72 -24 -147 -47 -236 -113 -273 -200 -9 -21 -16 -69 -17 -116 l-1
-80 90 -12 c271 -36 517 -55 1090 -83 231 -11 429 -22 440 -25 11 -2 -158 -2
-375 0 -377 3 -535 11 -1140 58 l-155 12 4 25 c10 67 8 74 -32 83 -20 5 -48 6
-62 3 -30 -8 -61 -51 -70 -98 -6 -30 -2 -40 24 -70 47 -54 79 -60 346 -64 132
-2 359 -14 505 -25 146 -11 417 -31 602 -43 l338 -23 25 -27 c19 -20 32 -26
48 -22 103 25 172 28 321 9 175 -21 391 -23 526 -5 132 17 509 40 795 48 159
4 367 1 615 -10 206 -8 518 -19 692 -22 297 -7 319 -6 338 11 13 12 47 20 112
27 51 5 98 14 105 20 21 17 15 53 -12 78 -14 13 -25 30 -25 38 0 13 -24 14
-167 8 -224 -9 -689 20 -716 44 -5 4 -2 63 7 131 25 199 35 413 46 924 5 264
13 527 17 584 l6 104 726 -6 c399 -4 816 -11 926 -17 110 -6 258 -11 329 -11
89 0 139 -4 163 -14 33 -14 34 -17 26 -47 -10 -40 -9 -201 1 -358 6 -86 4
-145 -8 -235 -13 -96 -16 -218 -16 -631 l0 -511 -52 -7 c-29 -3 -109 -6 -178
-6 -159 0 -290 -20 -369 -55 -61 -28 -63 -28 -207 -21 -113 5 -152 3 -178 -8
-31 -13 -56 -50 -43 -63 20 -19 223 -34 517 -38 282 -3 486 -15 511 -30 4 -3
28 7 54 22 66 37 132 35 255 -8 77 -26 109 -32 165 -30 39 1 279 2 535 2 382
0 480 -3 550 -16 157 -29 181 -29 254 -5 71 24 95 24 361 2 44 -4 102 -4 128
0 51 7 122 52 112 69 -12 19 -88 51 -154 64 -38 9 -162 17 -296 21 -224 6
-306 1 -485 -27 -72 -12 -79 -11 -155 15 -72 25 -101 29 -275 36 -168 8 -211
13 -315 40 -66 17 -148 33 -182 37 l-63 6 0 53 c0 29 5 131 10 226 6 95 19
416 30 713 29 792 51 1154 91 1525 24 227 68 533 77 541 4 4 44 12 89 18 115
17 168 36 182 68 40 87 53 309 27 434 -26 122 -70 182 -142 193 -22 3 -150 13
-285 21 -134 9 -247 19 -252 24 -4 4 -14 158 -22 343 -25 566 -57 687 -322
1218 -315 633 -551 985 -789 1175 -158 127 -259 218 -262 236 -2 10 8 35 22
56 14 21 26 49 26 64 0 22 -9 30 -68 58 -38 17 -78 31 -89 31 -37 0 -34 14 12
57 40 36 46 47 43 75 -2 26 -13 40 -52 68 -116 84 -132 97 -149 130 -15 29
-17 52 -14 130 3 78 12 120 50 237 51 159 67 262 67 436 0 373 -103 720 -255
857 -65 59 -225 222 -225 229 1 3 23 23 50 44 26 22 54 52 60 68 11 26 7 36
-69 161 -44 73 -98 155 -119 183 l-39 49 52 48 c69 62 123 170 246 480 31 78
33 142 9 253 -38 180 -45 155 54 205 l87 44 73 115 c130 205 165 292 186 465
17 132 8 318 -20 416 -37 131 -93 224 -200 331 -141 143 -299 238 -529 320
-265 94 -613 138 -863 109z m361 -130 c367 -28 548 -87 773 -252 81 -59 220
-204 273 -283 44 -67 63 -143 72 -291 4 -76 2 -103 -15 -155 -11 -35 -30 -99
-42 -142 -24 -91 -49 -144 -81 -172 l-22 -20 8 20 c76 184 103 425 64 580 -15
61 -83 135 -122 135 -25 0 -27 -3 -27 -39 0 -24 14 -68 37 -116 50 -107 54
-175 19 -382 -15 -87 -29 -167 -31 -178 -2 -11 -29 -50 -59 -87 -82 -99 -146
-198 -146 -226 0 -23 2 -24 42 -18 l43 7 -26 -28 c-47 -50 -50 -62 -38 -177
35 -332 -87 -654 -317 -837 -53 -42 -72 -51 -138 -63 -129 -25 -363 -140 -596
-294 l-115 -75 -110 -5 c-125 -5 -200 10 -296 59 -79 40 -149 98 -319 264 -80
78 -156 149 -168 157 -20 14 -23 22 -17 47 8 39 50 69 74 54 14 -9 23 -35 37
-110 3 -17 15 -24 54 -32 164 -35 389 12 499 105 31 26 32 30 26 73 -10 77
-24 108 -65 145 -45 40 -86 51 -175 44 -89 -8 -166 -46 -246 -123 -52 -50 -74
-65 -97 -65 -24 0 -31 5 -34 25 -7 33 13 70 67 125 95 98 73 163 -30 89 -38
-28 -49 -31 -86 -25 l-41 7 7 -48 6 -48 -88 -67 c-149 -112 -280 -183 -404
-217 l-45 -13 -38 38 c-38 38 -38 39 -34 104 6 81 42 156 138 289 69 97 84
125 94 172 6 27 50 76 148 167 85 78 112 116 104 148 -4 16 -3 30 4 34 7 4 0
30 -22 75 -26 56 -33 85 -36 152 l-5 83 51 53 c48 52 92 122 92 150 0 30 -29
50 -96 67 l-69 17 3 64 c4 118 53 249 158 429 96 164 191 276 248 291 22 6 61
23 86 39 100 62 486 240 556 255 138 31 319 40 513 25z m-4334 -618 c25 -7 14
-11 -69 -21 -165 -21 -261 -59 -343 -134 -82 -76 -122 -183 -108 -293 l6 -54
-70 0 -70 0 -3 38 c-19 227 129 412 373 467 67 15 226 13 284 -3z m505 -197
c115 -23 119 -26 78 -60 -77 -65 -230 -104 -368 -92 -59 5 -70 3 -86 -14 -15
-17 -16 -28 -8 -83 11 -70 4 -106 -21 -106 -24 0 -45 62 -45 135 0 75 -12 105
-40 105 -31 0 -40 -32 -40 -139 0 -56 -3 -101 -7 -101 -4 0 -17 10 -30 22 -21
20 -23 30 -23 119 0 54 -4 109 -10 123 -12 33 -43 34 -75 1 -32 -31 -32 -65
-1 -178 l24 -87 -23 0 c-55 0 -95 66 -95 156 0 52 26 140 49 163 18 18 91 37
198 52 97 13 427 3 523 -16z m396 -37 c25 -23 54 -54 65 -70 l20 -28 -56 -107
c-56 -108 -127 -214 -240 -358 -33 -42 -61 -80 -63 -85 -6 -17 62 -11 90 8 15
10 53 51 85 91 33 41 74 81 95 92 25 13 40 28 44 47 21 97 92 242 152 312 l39
44 44 -13 c56 -17 85 -41 149 -121 28 -35 67 -76 86 -89 l35 -25 -76 -38
c-148 -74 -210 -132 -261 -243 -20 -43 -28 -79 -32 -145 -6 -118 17 -191 106
-338 38 -62 77 -137 86 -167 16 -50 20 -55 63 -69 26 -9 61 -16 78 -16 45 0
120 41 200 110 39 33 76 60 84 60 10 0 12 -14 9 -60 -5 -66 -38 -140 -122
-267 l-47 -73 -87 -25 c-124 -37 -137 -43 -176 -81 -53 -51 -69 -89 -74 -177
-6 -102 7 -165 83 -392 35 -104 65 -197 67 -206 6 -30 -243 -359 -272 -359 -4
0 -11 17 -15 38 -12 65 -66 224 -108 317 -55 124 -114 226 -223 390 -87 130
-98 142 -154 173 -61 34 -61 34 -127 165 -137 274 -247 387 -420 431 -34 9
-49 18 -51 32 -2 10 -19 39 -38 63 -64 83 -43 153 101 341 103 135 141 210
195 380 43 138 68 183 119 217 43 29 51 29 51 -2 0 -42 -40 -133 -110 -254
-37 -64 -75 -140 -84 -170 -18 -62 -22 -171 -6 -171 24 0 61 57 80 124 29 100
44 130 91 181 32 34 50 69 80 155 56 159 87 212 143 242 18 10 19 7 13 -51 -5
-46 -25 -101 -76 -214 -66 -146 -95 -226 -86 -235 11 -11 83 38 106 73 44 66
120 248 114 272 -4 17 0 22 17 25 20 3 26 17 53 123 31 126 62 185 96 185 11
0 40 -19 65 -42z m-1937 -169 c35 -5 80 -17 100 -26 l36 -16 -65 -14 c-329
-72 -498 -206 -546 -435 -49 -227 62 -549 252 -735 62 -61 63 -63 36 -63 -68
0 -134 30 -193 90 -48 47 -70 83 -128 202 -38 80 -75 166 -82 192 -7 30 -10
100 -7 199 5 172 25 247 99 387 72 135 145 190 282 215 91 17 136 18 216 4z
m1301 -33 c0 -8 -4 -17 -9 -21 -12 -7 -24 12 -16 25 9 15 25 12 25 -4z m-580
-85 c0 -5 -6 -11 -12 -14 -18 -6 -39 3 -32 14 7 12 44 12 44 0z m-525 -86 c72
-8 272 -35 445 -59 173 -25 358 -49 410 -53 87 -7 95 -10 92 -28 -7 -45 -86
-188 -166 -303 -48 -67 -103 -152 -122 -187 -20 -36 -39 -65 -43 -65 -13 0
-31 49 -31 85 0 43 -34 83 -55 65 -22 -18 -37 -77 -30 -113 4 -17 18 -68 31
-111 14 -43 23 -80 21 -82 -2 -2 -19 6 -38 18 -48 32 -84 112 -111 248 -21
103 -25 115 -43 112 -43 -7 -50 -27 -50 -145 0 -112 0 -112 35 -161 19 -28 56
-73 82 -100 46 -50 47 -51 110 -52 61 -2 65 -3 112 -48 27 -25 52 -46 57 -46
5 0 13 9 19 20 9 16 7 28 -4 52 -9 17 -16 33 -16 34 0 2 34 -19 76 -46 42 -28
83 -50 90 -50 8 0 14 -4 14 -10 0 -15 -321 -12 -560 5 -113 8 -258 15 -322 15
-117 0 -118 0 -118 23 0 22 -54 139 -120 257 -34 61 -57 131 -65 203 -7 54
-23 60 -54 21 -45 -58 -17 -186 70 -317 32 -49 59 -100 59 -113 0 -28 -2 -29
-40 -9 -40 21 -64 58 -114 179 -24 59 -56 122 -70 141 -23 30 -25 38 -15 57 6
12 15 85 18 162 6 136 8 143 41 205 19 35 65 96 103 137 69 74 69 74 120 74
29 0 111 -7 182 -15z m3630 -26 c-50 -46 -96 -121 -116 -187 -11 -37 -10 -47
6 -80 34 -71 63 -152 54 -152 -18 0 -67 81 -79 131 -38 156 40 329 147 329
l33 0 -45 -41z m-1253 -24 c1 -5 -26 -25 -58 -43 -32 -18 -83 -59 -112 -90
l-54 -57 -5 -92 c-8 -135 9 -186 82 -237 18 -13 19 -18 7 -48 -12 -31 -11 -34
16 -59 16 -15 47 -29 71 -33 39 -6 161 8 185 21 7 4 8 2 1 -5 -5 -6 -45 -29
-88 -52 -68 -37 -84 -42 -119 -36 -168 27 -330 257 -264 376 10 18 11 30 4 44
-17 31 -5 128 21 164 32 46 104 92 201 129 85 33 110 37 112 18z m1023 -27
c-4 -13 -14 -54 -22 -92 -19 -86 -7 -173 35 -258 28 -57 28 -58 8 -58 -38 0
-64 28 -86 95 -24 72 -48 95 -97 95 -31 0 -33 -2 -33 -34 0 -22 13 -52 40 -92
46 -68 49 -84 16 -84 -37 0 -75 38 -108 107 -45 94 -98 129 -118 78 -12 -32
-2 -59 48 -119 60 -72 60 -85 3 -83 -25 1 -101 -2 -168 -7 -103 -7 -123 -7
-123 5 0 10 -76 172 -97 208 -2 2 -21 -2 -43 -9 -49 -16 -51 -34 -14 -109 17
-33 41 -62 65 -78 22 -14 37 -28 35 -30 -3 -3 -21 -5 -41 -5 -68 0 -123 86
-113 177 5 41 3 46 -18 51 -12 3 -46 1 -75 -5 -29 -6 -54 -9 -57 -7 -2 3 1 19
8 36 10 24 10 34 1 43 -28 28 -81 -49 -81 -119 0 -79 44 -163 95 -184 16 -7
13 -9 -16 -9 -80 -2 -136 135 -109 264 10 49 16 58 49 74 96 49 362 107 626
136 237 26 307 32 354 34 41 1 43 0 36 -21z m2695 -111 c0 -17 -20 -37 -37
-37 -11 0 -9 6 4 25 20 27 33 32 33 12z m-3605 -238 c3 -10 8 -28 11 -39 7
-27 -22 -27 -36 -1 -16 30 -13 72 5 65 8 -3 17 -14 20 -25z m75 -129 c0 -11
-29 -40 -41 -40 -5 0 -9 5 -9 10 0 6 7 10 16 10 10 0 14 6 11 14 -3 8 -3 17 0
20 7 7 23 -2 23 -14z m1001 -7 c-5 -10 -53 -67 -106 -128 -194 -221 -279 -337
-340 -467 -73 -155 -66 -249 26 -332 28 -26 62 -49 75 -52 57 -15 273 63 353
126 l48 38 49 -30 c27 -16 101 -84 164 -151 260 -274 301 -312 391 -356 90
-44 192 -71 277 -71 28 0 52 -2 52 -6 0 -3 -28 -37 -62 -77 -109 -127 -168
-236 -184 -340 -8 -50 -16 -57 -67 -57 -21 0 -53 -6 -71 -14 -28 -12 -35 -22
-49 -72 -9 -33 -19 -75 -22 -94 -6 -33 -13 -38 -103 -82 -53 -26 -149 -81
-212 -124 -176 -119 -302 -194 -326 -194 -32 0 -72 43 -100 108 -14 31 -41 73
-59 92 -38 40 -81 148 -213 550 -160 485 -183 564 -222 737 -71 315 -114 426
-201 516 -46 48 -49 53 -39 81 5 16 19 83 30 148 23 136 34 164 64 172 11 2
131 17 266 31 135 14 308 34 385 44 194 25 208 25 196 4z m726 -623 c7 -14 13
-48 13 -77 0 -41 -4 -54 -19 -62 -33 -18 -97 -24 -120 -11 -20 10 -22 17 -16
53 4 23 11 59 17 79 10 33 15 37 47 41 56 6 65 4 78 -23z m92 -37 c0 -25 -1
-25 -8 -8 -5 11 -7 23 -4 28 8 14 13 7 12 -20z m-309 -74 l0 -49 -35 0 c-29 0
-35 4 -35 21 0 23 50 89 63 82 4 -2 7 -26 7 -54z m452 -3349 c35 -17 84 -33
111 -36 53 -7 57 -17 36 -100 -11 -44 -11 -46 21 -79 17 -18 50 -41 72 -51 39
-18 40 -19 35 -59 -4 -23 -9 -90 -13 -149 l-7 -108 -44 7 c-70 10 -216 50
-388 105 -169 54 -325 94 -412 105 -48 6 -52 8 -42 26 18 34 140 158 254 259
61 54 134 122 164 153 l54 55 48 -49 c28 -29 75 -62 111 -79z m-2037 -290 c44
-17 15 -30 -68 -30 -38 0 -84 -7 -104 -15 -22 -10 -40 -12 -46 -6 -15 15 2 49
31 60 32 13 145 7 187 -9z m191 -237 c13 -31 24 -57 24 -59 0 -15 -106 2 -201
31 -63 19 -133 35 -156 35 -49 0 -55 12 -18 36 20 13 43 15 142 9 70 -4 128
-3 143 3 33 13 37 10 66 -55z m1364 25 c63 -17 151 -39 195 -51 115 -29 118
-40 10 -34 -72 4 -121 15 -245 55 -85 27 -171 55 -190 61 -80 25 118 -2 230
-31z m-257 -104 c67 -20 140 -46 162 -59 26 -14 65 -24 111 -29 77 -6 164 -33
320 -97 55 -22 128 -44 165 -48 67 -9 105 -25 114 -49 3 -9 -1 -12 -13 -8 -9
3 -57 12 -107 21 -49 9 -247 56 -440 105 -192 48 -385 94 -429 101 -49 8 -80
19 -84 28 -5 13 52 70 71 71 4 0 62 -16 130 -36z m-1513 -29 c302 -25 453 -65
628 -170 161 -95 174 -99 304 -84 98 11 118 11 248 -10 79 -12 244 -44 369
-71 274 -59 699 -150 914 -195 87 -19 172 -42 189 -52 31 -18 75 -69 67 -77
-2 -2 -42 4 -89 15 -47 10 -177 39 -290 64 -113 24 -345 76 -516 114 -478 107
-663 141 -815 151 -147 9 -256 33 -524 115 -192 58 -300 77 -450 78 -274 1
-417 -94 -416 -275 0 -72 6 -93 40 -138 24 -33 26 -42 28 -155 2 -165 21 -250
132 -604 73 -236 88 -327 106 -648 18 -326 24 -376 70 -543 47 -174 59 -250
52 -342 -4 -61 -1 -88 14 -127 32 -86 58 -242 79 -477 20 -229 43 -389 81
-559 46 -204 60 -402 39 -515 -6 -30 -12 -56 -15 -59 -3 -2 -21 3 -40 12 -56
27 -68 62 -76 232 -4 83 -12 191 -18 240 -6 50 -24 239 -41 420 -34 375 -51
495 -114 825 -25 129 -55 314 -66 410 -26 213 -39 278 -84 417 -48 148 -62
212 -86 400 -20 157 -38 233 -101 432 -16 52 -45 165 -64 251 -42 193 -52 222
-105 309 l-42 70 -2 153 -2 153 56 55 c30 31 102 88 159 128 122 84 100 80
381 57z m2475 -76 c10 -15 2 -19 -23 -12 -12 3 -19 9 -16 14 7 12 31 11 39 -2z
m-1221 -63 c45 -12 47 -14 24 -19 -14 -4 -50 -2 -78 3 -29 6 -55 10 -57 10 -2
0 -1 5 2 10 8 13 49 12 109 -4z m346 -69 c133 -44 95 -48 -77 -7 -69 17 -133
30 -143 30 -11 0 -22 5 -26 11 -14 24 137 3 246 -34z m-1419 -82 c46 -8 145
-30 219 -50 84 -21 180 -39 255 -45 260 -23 295 -29 353 -57 56 -26 63 -27
287 -33 245 -6 244 -6 329 -64 38 -26 164 -55 376 -86 209 -31 293 -50 322
-71 19 -13 44 -19 81 -19 65 0 195 -42 317 -103 96 -48 226 -130 212 -135 -8
-2 -676 132 -982 199 -761 165 -855 183 -1165 224 -481 62 -640 59 -758 -17
-71 -46 -82 -89 -31 -123 26 -17 31 -44 12 -63 -9 -9 -9 -21 0 -50 7 -22 12
-47 12 -56 0 -24 137 -229 204 -306 65 -74 128 -128 206 -178 30 -19 56 -36
58 -37 1 -1 -5 -19 -14 -41 -9 -21 -16 -65 -17 -97 0 -69 18 -94 76 -104 33
-5 37 -3 43 23 4 15 2 53 -4 83 -7 30 -10 56 -9 58 2 2 50 -15 108 -36 127
-48 241 -79 325 -87 35 -4 64 -10 64 -15 0 -4 -13 -17 -29 -28 -39 -28 -94
-27 -159 4 -30 14 -60 25 -67 25 -19 0 -104 -95 -121 -135 -19 -46 -18 -138 2
-178 9 -18 41 -62 71 -100 59 -72 83 -123 75 -163 -8 -44 -44 -25 -57 31 -9
36 -32 75 -45 75 -13 0 -13 -130 0 -245 17 -142 47 -256 94 -347 24 -46 46
-95 50 -110 3 -16 -3 -71 -15 -130 -33 -158 -26 -214 62 -524 36 -124 66 -268
109 -520 71 -421 104 -587 136 -696 5 -16 -3 -18 -63 -18 l-68 0 -1 68 c-2 85
-24 166 -87 312 -106 249 -108 254 -117 530 -5 129 -15 280 -24 335 -22 141
-76 348 -128 493 l-45 123 19 67 c25 84 35 279 19 340 -15 53 -74 122 -91 106
-6 -6 -15 -53 -21 -105 -6 -55 -19 -112 -31 -138 -19 -38 -20 -55 -15 -150 7
-120 24 -195 96 -429 58 -187 75 -279 91 -482 32 -426 36 -453 140 -802 38
-128 67 -235 65 -239 -14 -21 -140 -35 -204 -23 l-31 7 0 176 c0 224 -9 281
-71 471 -44 135 -51 163 -48 225 6 184 2 229 -35 380 -130 528 -143 633 -110
848 24 157 23 263 -4 314 -12 23 -34 50 -49 61 -74 52 -105 29 -70 -52 19 -44
20 -53 8 -105 -62 -267 -55 -367 54 -796 73 -287 85 -350 120 -610 45 -341 77
-740 67 -840 -5 -50 -23 -61 -69 -39 -67 33 -76 65 -67 234 12 232 10 260 -14
307 -31 59 -40 108 -51 283 -7 108 -23 217 -52 360 -41 207 -50 310 -34 403 5
30 4 47 -2 47 -34 0 -101 287 -128 545 -43 421 -54 632 -34 652 8 8 4 22 -15
49 -42 64 -76 160 -112 317 -19 81 -34 151 -34 154 0 4 27 -34 59 -83 32 -49
86 -121 120 -161 l60 -72 -11 -84 c-25 -186 30 -317 177 -426 46 -35 205 -126
250 -144 26 -10 65 0 65 17 0 21 -97 107 -197 174 -117 79 -159 116 -195 171
-34 54 -35 67 -7 74 20 5 21 11 16 61 l-5 55 26 -10 c15 -5 63 -27 107 -49 44
-21 97 -42 119 -45 38 -6 38 -6 31 22 -11 47 -49 87 -143 151 -93 64 -146 116
-164 161 -5 14 -13 64 -18 111 -9 92 -33 156 -62 166 -28 8 -38 -4 -38 -47 0
-24 -4 -38 -10 -34 -21 13 -62 98 -105 214 -24 67 -54 138 -66 157 -22 36 -35
39 -79 20 -12 -5 -21 25 -49 166 -36 177 -47 346 -25 368 27 27 282 37 405 15z
m2394 5 c-3 -5 -15 -10 -26 -10 -10 0 -19 5 -19 10 0 6 12 10 26 10 14 0 23
-4 19 -10z m-1885 -380 c165 -15 209 -25 378 -80 168 -55 212 -62 532 -90 269
-23 323 -33 370 -65 26 -18 49 -25 83 -25 65 0 236 -42 393 -95 112 -39 153
-47 279 -60 135 -14 156 -18 221 -51 53 -26 80 -34 101 -30 25 6 33 0 76 -54
l48 -60 -58 6 c-111 11 -240 35 -448 84 -256 59 -277 63 -490 95 -93 14 -264
43 -380 65 -303 56 -406 70 -530 68 -100 -2 -119 1 -210 31 -77 26 -121 34
-190 36 -56 2 -115 11 -155 24 -229 72 -400 80 -509 22 -21 -12 -22 -14 -6
-31 37 -40 184 -103 310 -130 200 -45 465 -68 578 -52 183 26 207 15 361 -170
l48 -58 -32 0 c-18 0 -128 17 -244 37 -186 33 -230 37 -371 37 -88 0 -178 -2
-200 -5 -36 -5 -40 -9 -43 -38 -2 -17 -6 -31 -10 -31 -4 0 -63 42 -132 94
-218 163 -338 312 -374 464 -14 60 -14 61 8 65 45 9 487 6 596 -3z m-810 -383
c0 -25 -2 -28 -15 -17 -8 7 -15 28 -15 49 1 34 2 35 15 17 8 -11 15 -33 15
-49z m1635 -57 c209 -49 493 -94 693 -110 94 -8 132 -15 165 -32 26 -14 69
-25 112 -28 39 -4 135 -26 214 -49 170 -50 360 -94 526 -121 l119 -20 61 -58
c33 -33 89 -81 125 -107 36 -27 67 -50 69 -52 2 -2 2 -5 0 -7 -12 -11 -133 34
-279 104 -294 140 -383 159 -960 205 -337 26 -497 44 -638 72 -73 14 -84 19
-101 47 -11 17 -61 62 -110 100 -50 38 -91 70 -91 72 0 6 3 5 95 -16z m-1602
-63 c2 -6 -1 -18 -8 -24 -10 -10 -14 -9 -19 3 -3 9 -6 20 -6 25 0 14 27 11 33
-4z m956 -171 c15 -13 40 -19 93 -21 40 -2 129 -13 198 -25 160 -28 258 -24
328 12 l49 25 12 -33 c7 -19 30 -49 53 -66 22 -18 69 -57 105 -86 35 -30 94
-68 131 -85 37 -16 80 -39 96 -50 56 -39 128 -48 451 -57 435 -12 487 -23 649
-136 50 -35 112 -76 138 -91 26 -16 48 -31 48 -34 0 -13 -152 -19 -513 -19
l-378 0 -45 -45 c-133 -133 -156 -392 -52 -597 13 -28 25 -38 42 -38 13 0 67
-11 120 -25 53 -14 110 -25 126 -25 l30 0 0 -313 c0 -322 -6 -509 -40 -1167
-41 -796 -44 -1095 -14 -1506 l6 -82 -188 -6 c-104 -4 -349 -16 -544 -26 -195
-11 -479 -26 -630 -34 -151 -9 -319 -18 -373 -21 -65 -3 -96 -2 -92 5 16 25
74 41 197 54 142 15 180 26 215 58 l21 20 7 -21 c3 -11 20 -32 36 -45 l30 -26
57 29 c126 63 254 98 596 161 121 22 221 42 224 44 2 3 -6 49 -17 103 -22 99
-21 123 6 155 19 22 7 44 -52 92 -25 21 -52 50 -60 65 l-14 28 90 57 c56 36
104 60 129 63 22 3 40 11 40 17 -1 6 -11 64 -25 129 -16 81 -32 131 -49 158
-41 61 -33 76 47 93 17 4 27 13 27 24 0 22 -70 91 -130 127 -94 57 -111 89
-64 120 25 16 26 20 19 72 -9 76 -39 161 -92 267 -78 156 -112 244 -129 338
-12 64 -24 98 -41 119 -31 36 -44 80 -89 284 -84 385 -110 453 -254 670 -51
77 -106 161 -121 187 -60 102 -75 227 -39 332 23 67 22 70 -56 208 -31 54 -62
119 -70 144 -13 43 -12 50 4 78 43 74 182 104 400 87 75 -6 137 -9 140 -6 2 2
-4 19 -15 37 -39 67 -118 92 -343 108 -361 26 -416 32 -480 45 -67 14 -160 52
-160 66 0 13 75 28 132 25 38 -1 64 -8 77 -20z m1174 -161 c56 -9 144 -25 196
-35 57 -12 133 -20 193 -20 65 0 111 -5 135 -15 24 -10 85 -17 187 -20 167 -6
222 -18 331 -72 76 -37 277 -121 371 -154 47 -16 89 -21 212 -24 l154 -3 151
-76 c84 -41 166 -79 182 -83 29 -7 29 -7 -15 -14 -146 -24 -539 -3 -697 37
-106 26 -150 52 -244 140 -161 153 -269 185 -689 204 -342 16 -497 46 -625
120 l-50 30 53 0 c28 0 98 -7 155 -15z m-1165 -382 c11 -20 10 -23 -2 -23 -22
0 -86 99 -86 133 0 38 24 93 47 105 17 10 18 4 23 -91 3 -56 11 -112 18 -124z
m185 -78 l4 -26 -28 27 c-30 29 -30 51 0 34 10 -5 21 -21 24 -35z m1617 -151
c112 -13 180 -15 400 -8 307 10 513 9 1064 -6 840 -22 1144 -80 1346 -254 36
-31 80 -61 98 -67 76 -25 109 18 77 100 -63 164 -64 161 42 161 112 0 385 -28
397 -40 13 -13 15 -424 3 -437 -16 -15 -736 -4 -1232 19 -433 20 -583 22
-1294 20 -776 -2 -901 1 -1144 30 l-97 11 -9 36 c-28 110 -19 267 19 341 26
51 70 88 115 99 57 13 65 13 215 -5z m-1662 -203 c29 -10 57 -22 62 -27 12
-13 62 -232 58 -256 -2 -18 -13 -9 -60 49 -63 76 -94 136 -107 207 -5 25 -8
46 -7 46 0 -1 25 -9 54 -19z m-49 -314 c21 -29 50 -61 63 -69 16 -11 35 -45
56 -100 85 -226 128 -428 202 -953 25 -175 74 -455 96 -538 8 -31 28 -79 45
-105 33 -51 69 -158 69 -202 0 -36 -12 -40 -126 -40 -109 0 -96 -18 -113 155
-14 138 -13 181 2 225 11 31 10 41 -9 85 -32 76 -60 199 -98 435 -41 250 -63
342 -107 442 -38 87 -39 124 -4 227 l26 77 -46 130 c-26 71 -62 162 -81 203
-38 83 -38 81 -24 81 5 0 27 -24 49 -53z m3651 -127 c658 -14 722 -18 716 -39
-14 -48 -28 -355 -25 -553 l4 -226 -115 -9 c-163 -11 -1155 -8 -1400 5 -113 7
-303 17 -423 24 l-218 12 6 90 c3 50 10 183 15 296 9 202 25 315 55 387 l15
36 448 -6 c246 -4 661 -12 922 -17z m-3367 -62 c30 -62 43 -113 27 -103 -12 7
-39 59 -50 94 -4 14 -11 34 -15 44 -4 9 -3 17 3 17 6 0 22 -24 35 -52z m1647
-149 c102 -13 186 -23 187 -24 1 0 -4 -64 -12 -141 -35 -353 -58 -853 -75
-1694 -6 -272 -15 -598 -20 -725 -6 -126 -10 -252 -10 -279 l0 -49 -82 6 c-90
7 -176 32 -246 73 l-45 27 6 376 c6 348 16 564 49 1136 14 239 18 1202 5 1273
l-7 42 32 0 c18 0 116 -9 218 -21z m-1563 -70 c11 -20 10 -25 -4 -27 -18 -4
-33 14 -33 41 0 25 22 16 37 -14z m4480 -74 c-3 -49 -24 -216 -46 -370 -51
-351 -58 -493 -66 -1315 -5 -577 -13 -845 -31 -1046 -8 -89 -13 -92 -177 -105
-65 -5 -122 -11 -128 -14 -12 -8 -12 -5 11 105 31 148 40 440 49 1661 6 827
12 1122 20 1138 20 36 47 41 215 38 l159 -2 -6 -90z m-4457 -76 c0 -18 -2 -19
-15 -9 -8 7 -15 16 -15 21 0 5 7 9 15 9 9 0 15 -9 15 -21z m213 -389 c74 -231
127 -368 207 -538 71 -152 81 -209 44 -259 -12 -15 -27 -28 -35 -28 -32 0
-148 262 -203 460 -45 161 -98 485 -95 585 l1 35 11 -35 c5 -19 37 -118 70
-220z m2087 -90 c223 -8 1253 -30 1458 -30 l62 0 0 -52 c0 -29 -5 -97 -12
-151 l-12 -98 -101 6 c-194 11 -766 25 -1316 31 l-557 7 13 37 c7 20 16 77 20
126 3 49 9 102 12 118 l5 29 82 -7 c44 -3 200 -10 346 -16z m-2220 -55 c6 -30
10 -69 8 -87 -3 -30 -4 -31 -14 -13 -13 22 -24 166 -12 159 3 -2 12 -29 18
-59z m100 -405 c52 -131 95 -216 126 -253 13 -16 24 -32 24 -37 0 -13 -37 -19
-80 -13 -40 6 -40 6 -60 74 -50 168 -87 371 -62 344 5 -5 28 -57 52 -115z
m418 -430 c17 -11 32 -24 32 -30 0 -18 -47 -41 -119 -56 -41 -8 -113 -35 -162
-60 -79 -39 -179 -71 -179 -57 0 3 13 22 29 42 34 43 61 94 61 116 0 10 10 15
28 16 15 0 63 11 107 24 102 29 160 31 203 5z m-1240 -215 c61 -14 125 -25
141 -25 17 0 31 -2 31 -5 0 -2 -10 -28 -21 -57 -46 -114 -44 -171 8 -220 43
-40 73 -51 133 -51 89 0 162 53 176 129 7 40 -3 69 -45 122 -16 20 -32 47 -35
59 -6 19 -3 21 36 21 24 -1 82 5 130 12 l86 13 49 -36 c26 -20 74 -63 106 -96
31 -33 75 -68 97 -78 22 -10 40 -21 40 -24 0 -3 -75 -57 -167 -119 -114 -77
-197 -143 -258 -203 -78 -77 -91 -87 -100 -72 -80 139 -195 196 -293 146 -48
-25 -56 -45 -50 -131 3 -48 10 -67 35 -97 62 -78 155 -78 233 -1 l43 43 -7
-34 c-3 -18 -21 -54 -40 -80 -45 -62 -66 -105 -66 -136 0 -14 -5 -25 -10 -25
-21 0 -71 31 -120 75 -80 71 -116 85 -247 95 -133 10 -217 35 -300 89 -65 43
-141 118 -184 181 l-28 42 73 48 c126 85 267 249 337 393 22 45 25 47 65 47
23 0 91 -11 152 -25z m346 -162 c8 -19 -21 -28 -53 -17 -18 6 -27 18 -29 36
l-3 27 40 -16 c22 -9 42 -22 45 -30z m976 -25 c0 -21 -68 -76 -105 -87 -65
-18 -79 -14 -93 21 -6 17 -11 32 -9 33 8 5 126 44 142 47 29 5 65 -3 65 -14z
m-2084 -55 c-11 -11 -19 6 -11 24 8 17 8 17 12 0 3 -10 2 -21 -1 -24z m-76
-178 l0 -45 -110 0 c-100 0 -110 2 -110 18 0 19 34 55 60 65 8 3 48 6 88 6
l72 1 0 -45z m1794 -95 c18 -18 18 -19 -15 -36 -19 -9 -79 -32 -134 -50 l-100
-33 64 61 c94 88 138 102 185 58z m-719 -81 c4 -5 4 -21 1 -35 -6 -21 -9 -23
-26 -14 -27 14 -27 60 -1 60 11 0 23 -5 26 -11z m912 -81 c31 -11 33 -14 33
-63 l0 -51 -32 4 c-21 2 -62 -8 -112 -28 -67 -27 -82 -30 -106 -20 -32 13 -46
10 -247 -56 -155 -51 -227 -65 -218 -43 11 27 56 50 167 88 62 21 194 70 293
109 99 39 182 71 184 72 3 0 20 -5 38 -12z m-2224 -57 c43 -10 80 -21 83 -24
13 -12 -272 -37 -440 -37 -102 0 -117 2 -106 14 14 18 90 56 134 67 49 13 243
1 329 -20z m907 -306 c-14 -16 -50 -21 -50 -6 0 9 52 31 59 25 2 -2 -2 -10 -9
-19z"/>
<path d="M6740 12035 c-17 -18 -21 -30 -15 -39 75 -98 106 -178 125 -318 21
-146 -6 -337 -64 -465 -14 -29 -21 -53 -16 -53 20 0 69 54 99 109 112 211 103
581 -19 750 -36 50 -73 55 -110 16z"/>
<path d="M6553 11938 c-18 -11 -33 -23 -33 -28 0 -4 27 -40 60 -81 34 -41 77
-106 97 -146 30 -60 35 -82 35 -135 0 -37 -7 -79 -18 -103 l-17 -40 -14 73
c-34 180 -124 287 -257 307 l-49 8 6 -42 c7 -52 23 -71 107 -127 116 -77 135
-131 117 -336 -6 -70 -8 -130 -5 -133 3 -3 25 15 50 40 25 25 55 45 66 45 27
0 38 21 62 117 26 99 36 260 21 337 -13 73 -53 162 -89 199 -22 24 -94 69
-104 66 -2 0 -18 -10 -35 -21z"/>
<path d="M4820 11835 c-96 -31 -193 -134 -207 -218 -5 -32 -3 -37 14 -37 10 0
50 20 87 45 103 68 175 60 225 -23 22 -35 67 -70 77 -59 11 11 24 119 19 158
-16 115 -103 170 -215 134z"/>
<path d="M6204 11625 c-19 -15 -18 -15 6 -36 14 -12 59 -38 101 -59 42 -21 90
-50 106 -64 29 -25 70 -93 60 -102 -2 -2 -22 12 -43 32 -21 20 -99 65 -172
100 -106 52 -136 62 -151 54 -32 -16 -51 -40 -51 -62 0 -19 4 -20 53 -14 37 5
57 3 71 -7 17 -13 16 -15 -25 -46 -52 -38 -80 -46 -107 -32 -18 10 -19 8 -15
-32 5 -39 1 -48 -36 -91 -23 -27 -41 -58 -41 -71 0 -23 2 -23 33 -13 18 7 67
48 113 97 l82 85 58 4 c49 3 65 0 94 -20 77 -51 112 -194 92 -376 -27 -250
-120 -462 -227 -514 l-44 -21 -40 28 c-72 49 -122 34 -101 -32 37 -113 115
-137 240 -73 146 74 223 212 271 487 25 145 31 509 10 582 -34 119 -264 252
-337 196z"/>
<path d="M4835 11484 c-6 -1 -22 -5 -37 -8 -21 -5 -28 -12 -28 -31 0 -24 6
-28 66 -40 49 -9 110 -68 128 -122 18 -52 21 -154 6 -183 -5 -10 -27 -24 -47
-30 -45 -15 -83 -47 -83 -71 0 -36 81 -40 131 -6 18 12 56 58 83 101 50 78 50
78 38 124 -19 75 -83 193 -122 224 -31 25 -108 49 -135 42z"/>
<path d="M4680 11273 c-61 -22 -78 -90 -35 -137 51 -55 125 -3 125 89 0 36 -4
44 -22 49 -27 7 -47 7 -68 -1z"/>
<path d="M6220 11143 c-41 -15 -110 -107 -110 -147 0 -9 14 -31 30 -49 48 -56
40 -85 -36 -126 -38 -20 -49 -31 -49 -51 0 -29 38 -47 78 -36 60 15 137 115
137 177 0 14 -13 43 -28 65 -45 62 -46 72 -8 88 39 16 66 70 39 80 -17 7 -32
7 -53 -1z"/>
<path d="M4850 10661 c-91 -28 -190 -119 -247 -228 -39 -72 -40 -83 -10 -76
34 9 50 23 108 93 72 86 97 107 143 122 33 10 42 9 65 -5 65 -41 125 -62 277
-93 317 -65 379 -107 378 -256 l0 -68 48 0 48 0 0 73 c0 39 -8 102 -18 139
-14 55 -23 72 -51 93 -51 37 -120 60 -271 89 -180 36 -234 52 -306 92 -62 34
-109 42 -164 25z"/>
<path d="M971 10956 l-23 -25 22 -68 c65 -201 176 -341 298 -378 37 -11 29 35
-14 76 -22 20 -55 73 -82 129 -25 52 -55 109 -67 125 -12 17 -22 45 -24 63 -1
19 -8 49 -16 68 -11 27 -19 34 -43 34 -17 0 -37 -9 -51 -24z"/>
<path d="M759 10943 c-6 -16 -9 -60 -7 -99 8 -131 93 -265 201 -319 50 -25 87
-32 87 -17 0 14 -42 77 -95 142 -75 93 -88 122 -83 190 4 54 2 58 -24 73 -16
9 -28 25 -28 37 0 31 -38 26 -51 -7z"/>
<path d="M3758 11125 c-10 -13 -18 -28 -18 -34 0 -5 30 -41 68 -80 72 -75 122
-101 122 -62 0 37 -46 115 -94 159 -25 23 -49 42 -53 42 -5 0 -16 -11 -25 -25z"/>
<path d="M3727 4373 c-3 -5 -13 -43 -22 -87 -14 -64 -15 -85 -6 -117 16 -54
44 -67 76 -35 21 21 25 34 25 85 0 33 -5 83 -11 111 -9 43 -14 50 -34 50 -13
0 -26 -3 -28 -7z"/>
<path d="M3213 12226 c-4 -8 -35 -30 -69 -50 -93 -54 -184 -184 -170 -242 4
-13 10 -24 15 -24 5 0 46 41 92 91 45 50 101 99 123 111 63 31 86 57 86 95 0
31 -2 33 -35 33 -19 0 -38 -6 -42 -14z"/>
<path d="M3413 11999 c-81 -47 -139 -104 -172 -171 -36 -71 -39 -98 -12 -98
27 0 64 33 126 110 33 41 66 72 85 78 16 6 30 8 30 4 1 -12 30 60 30 74 0 7
-8 18 -18 23 -13 7 -30 2 -69 -20z"/>
<path d="M3666 11847 c-9 -38 -41 -71 -117 -122 -62 -43 -130 -117 -118 -130
3 -2 29 2 59 9 141 33 240 125 240 223 0 41 -2 43 -29 43 -22 0 -30 -6 -35
-23z"/>
</g>
</svg>
